# AST/ASF file generated using VICON BodyLanguage
# -----------------------------------------------
:version 1.10
:name VICON
:units
  mass 1.0
  length 0.45
  angle deg
:documentation
   .ast/.asf automatically generated from VICON data using
   VICON BodyBuilder and BodyLanguage model FoxedUp or BRILLIANT.MOD
:root
   order TX TY TZ RX RY RZ
   axis XYZ
   position 0 0 0  
   orientation 0 0 0 
:bonedata
  begin
     id 1 
     name lhipjoint
     direction 0.660183 -0.676772 0.325788 
     length 2.75133 
     axis 0 0 0  XYZ
  end
  begin
     id 2 
     name lfemur
     direction 0.34202 -0.939693 0  
     length 7.70317  
     axis 0 0 20  XYZ
    dof rx ry rz
    limits (-160.0 20.0)
           (-70.0 70.0)
           (-60.0 70.0)
  end
  begin
     id 3 
     name ltibia
     direction 0.342105 -0.939662 0   
     length 7.18701   
     axis 0 0 20   XYZ
    dof rx
    limits (-10.0 170.0)
  end
  begin
     id 4 
     name lfoot
     direction 0.14163 -0.389126 0.910232   
     length 2.41719   
     axis -90 7.62852e-016 20   XYZ
    dof rx rz
    limits (-45.0 90.0)
           (-70.0 20.0)
  end
  begin
     id 5 
     name ltoes
     direction 1.53533e-011 -4.21926e-011 1   
     length 1.18611   
     axis -90 7.62852e-016 20   XYZ
    dof rx
    limits (-90.0 20.0)
  end
  begin
     id 6 
     name rhipjoint
     direction -0.6658 -0.67229 0.323631   
     length 2.76968  
     axis 0 0 0  XYZ 
  end
  begin
     id 7 
     name rfemur
     direction -0.34202 -0.939693 0   
     length 7.92547   
     axis 0 0 -20   XYZ
    dof rx ry rz
    limits (-160.0 20.0)
           (-70.0 70.0)
           (-70.0 60.0)
  end
  begin
     id 8 
     name rtibia
     direction -0.342022 -0.939692 0   
     length 7.22641   
     axis 0 0 -20   XYZ
    dof rx
    limits (-10.0 170.0)
 end
 begin
     id 9 
     name rfoot
     direction -0.105675 -0.29034 0.951071   
     length 2.48149  
     axis -90 -7.62852e-016 -20   XYZ
    dof rx rz
    limits (-45.0 90.0)
           (-20.0 70.0)
  end
  begin
     id 10 
     name rtoes
     direction -1.5349e-011 -4.21859e-011 1   
     length 1.23343   
     axis -90 -7.62852e-016 -20   XYZ
    dof rx
    limits (-90.0 20.0)
  end
  begin
     id 11 
     name lowerback
     direction 0.0104173 0.993624 -0.112266   
     length 2.00527   
     axis 0 0 0   XYZ
    dof rx ry rz
    limits (-20.0 45.0)
           (-30.0 30.0)
           (-30.0 30.0)
  end
  begin
     id 12 
     name upperback
     direction 0.00733149 0.999856 -0.0152913   
     length 2.01385   
     axis 0 0 0   XYZ
    dof rx ry rz
    limits (-20.0 45.0)
           (-30.0 30.0)
           (-30.0 30.0)
  end
  begin
     id 13 
     name thorax
     direction 0.0026304 0.999318 0.036841   
     length 2.03734   
     axis 0 0 0   XYZ
    dof rx ry rz
    limits (-20.0 45.0)
           (-30.0 30.0)
           (-30.0 30.0)
  end
  begin
     id 14 
     name lowerneck
     direction 0.0293154 0.998757 0.0403082   
     length 1.65303   
     axis 0 0 0   XYZ
    dof rx ry rz
    limits (-20.0 45.0)
           (-30.0 30.0)
           (-30.0 30.0)
  end
  begin
     id 15 
     name upperneck
     direction -0.0376619 0.998184 -0.0470083   
     length 1.60926   
     axis 0 0 0   XYZ
    dof rx ry rz
    limits (-20.0 45.0)
           (-30.0 30.0)
           (-30.0 30.0)
  end
  begin
     id 16
     name head
     direction -0.0170133 0.999635 -0.0209778  
     length 1.73625  
     axis 0 0 0   XYZ
    dof rx ry rz
    limits (-20.0 45.0)
           (-30.0 30.0)
           (-30.0 30.0)
  end
  begin
     id 17 
     name lclavicle
     direction 0.919857 0.39181 -0.0186333  
     length 3.75313  
     axis 0 0 0   XYZ
    dof ry rz
    limits (-20.0 10.0)
           (0.0 20.0)
  end
  begin
     id 18 
     name lhumerus
     direction 1 -4.48988e-011 1.44029e-027   
     length 5.49313   
     axis 180 -30 -90   XYZ
    dof rx ry rz
    limits (-60.0 90.0)
           (-90.0 90.0)
           (-90.0 90.0)
  end
  begin
     id 19
     name lradius
     direction 1 -4.48924e-011 7.46281e-027   
     length 3.29037   
     axis 180 -30 -90   XYZ
    dof rx
    limits (-10.0 170.0)
  end
  begin
     id 20
     name lwrist
     direction 1 -4.48955e-011 2.19879e-026   
     length 1.64519   
     axis -1.34358e-014 90 90   XYZ
    dof ry
    limits (-180.0 0.0)
 end
  begin
     id 21 
     name lhand
     direction 1 -4.48978e-011 4.39747e-026   
     length 0.729656   
     axis -2.80598e-014 90 90   XYZ
    dof rx rz
    limits (-90.0 90.0)
           (-45.0 45.0)
  end
  begin
     id 22 
     name lfingers
     direction 1 -4.49071e-011 8.79411e-026   
     length 0.588268   
     axis -5.61193e-014 90 90   XYZ
    dof rx
    limits (0.0 90.0)
  end
  begin
     id 23
     name lthumb
     direction 0.707107 -6.34817e-011 0.707107   
     length 0.844638   
     axis -90 45 -9.86923e-015   XYZ
    dof rx rz
    limits (-45.0 45.0)
           (-45.0 45.0)
  end
  begin
     id 24 
     name rclavicle
     direction -0.919898 0.388279 0.0550233   
     length 3.7171  
     axis 0 0 0   XYZ 
    dof ry rz
    limits (-10.0 20.0)
           (-20.0 0.0)
  end
  begin
     id 25 
     name rhumerus
     direction -1 -4.48968e-011 9.98372e-028  
     length 5.23684   
     axis 180 30 90   XYZ
    dof rx ry rz
    limits (-90.0 60.0)
           (-90.0 90.0)
           (-90.0 90.0)
  end
  begin
     id 26 
     name rradius
     direction -1 -4.48956e-011 1.01023e-026   
     length 3.38251   
     axis 180 30 90   XYZ
    dof rx
    limits (-10.0 170.0)
  end
  begin
     id 27 
     name rwrist
     direction -1 -4.4892e-011 2.19886e-026   
     length 1.69126   
     axis -1.34358e-014 -90 -90   XYZ
    dof ry
    limits (-180.0 0.0)
  end
  begin
     id 28
     name rhand
     direction -1 -4.49024e-011 4.39727e-026   
     length 0.691454   
     axis -2.80598e-014 -90 -90   XYZ
    dof rx rz
    limits (-90.0 90.0)
           (-45.0 45.0)
  end
  begin
     id 29
     name rfingers
     direction -1 -4.49097e-011 8.79388e-026   
     length 0.557468   
     axis -5.61193e-014 -90 -90   XYZ
    dof rx
    limits (0.0 90.0)
  end
  begin
     id 30
     name rthumb
     direction -0.707107 -6.34938e-011 0.707107   
     length 0.800416   
     axis -90 -45 9.86923e-015   XYZ
    dof rx rz
    limits (-45.0 45.0)
           (-45.0 45.0)
  end
:hierarchy
  begin
    root lhipjoint rhipjoint lowerback
    lhipjoint lfemur
    lfemur ltibia
    ltibia lfoot
    lfoot ltoes
    rhipjoint rfemur
    rfemur rtibia
    rtibia rfoot
    rfoot rtoes
    lowerback upperback
    upperback thorax
    thorax lowerneck lclavicle rclavicle
    lowerneck upperneck
    upperneck head
    lclavicle lhumerus
    lhumerus lradius
    lradius lwrist
    lwrist lhand lthumb
    lhand lfingers
    rclavicle rhumerus
    rhumerus rradius
    rradius rwrist
    rwrist rhand rthumb
    rhand rfingers
  end

#!OML:ASF H:\BabyWalks\Project 1\Capture day 1\Session 1\baby.ASF
:FULLY-SPECIFIED
:DEGREES
222
root -35.119 17.5684 -2.89505 -37.3115 81.3424 -40.1458
lowerback 14.711 -0.870053 1.98144
upperback 7.34866 -0.464681 2.27404
thorax -0.487975 -0.0636355 1.32418
lowerneck -4.02985 3.21898 0.837084
upperneck 10.1147 4.94261 -5.57555
head 4.24063 2.26245 -1.77542
rclavicle 1.98785e-015 -2.0276e-014
rhumerus -43.6667 14.7462 -84.555
rradius 40.9357
rwrist -0.855754
rhand -0.911546 -18.1802
rfingers 7.12502
rthumb 24.717 -46.6035
lclavicle 1.98785e-015 -2.0276e-014
lhumerus -46.4956 -0.501042 80.5526
lradius 52.3038
lwrist 3.3972
lhand -0.682371 11.4766
lfingers 7.12502
lthumb 24.9366 39.8696
rfemur 5.23919 2.54547 30.2462
rtibia 11.6838
rfoot -21.0313 -24.1582
rtoes 7.15257
lfemur -21.5178 3.79063 -13.7615
ltibia 38.3693
lfoot -17.6986 5.15824
ltoes -5.28278
223
root -35.1133 17.57 -2.89896 -37.1172 81.4093 -40.0272
lowerback 14.7235 -0.864059 1.94637
upperback 7.33788 -0.461454 2.26092
thorax -0.505831 -0.0630433 1.32987
lowerneck -4.00286 3.20722 0.841593
upperneck 10.0952 4.92355 -5.56387
head 4.22715 2.25445 -1.77347
rclavicle 1.21756e-015 2.56432e-014
rhumerus -43.681 14.6752 -84.5561
rradius 40.9252
rwrist -0.831758
rhand -0.989136 -18.1643
rfingers 7.12502
rthumb 24.6426 -46.5977
lclavicle 1.21756e-015 2.56432e-014
lhumerus -46.5455 -0.439021 80.5773
lradius 52.2303
lwrist 3.35963
lhand -0.668726 11.4687
lfingers 7.12502
lthumb 24.9497 39.8599
rfemur 5.21413 2.57608 30.1708
rtibia 11.618
rfoot -21.0573 -24.1838
rtoes 7.18454
lfemur -21.5691 3.70297 -13.845
ltibia 38.3299
lfoot -17.6984 5.20898
ltoes -5.21848
224
root -35.1069 17.5718 -2.90307 -36.9235 81.4823 -39.9167
lowerback 14.7363 -0.857613 1.90765
upperback 7.32682 -0.458104 2.24752
thorax -0.524157 -0.0624732 1.33732
lowerneck -3.98147 3.19587 0.839794
upperneck 10.0767 4.90502 -5.54679
head 4.21475 2.24656 -1.76846
rclavicle 2.35808e-014 -7.95139e-016
rhumerus -43.7004 14.6063 -84.559
rradius 40.9219
rwrist -0.812388
rhand -1.0665 -18.1501
rfingers 7.12502
rthumb 24.5685 -46.5937
lclavicle 2.35808e-014 -7.95139e-016
lhumerus -46.5933 -0.380081 80.6002
lradius 52.1595
lwrist 3.32423
lhand -0.654734 11.4702
lfingers 7.12502
lthumb 24.9631 39.8596
rfemur 5.18466 2.60897 30.093
rtibia 11.5489
rfoot -21.0767 -24.2175
rtoes 7.19988
lfemur -21.6251 3.60971 -13.9321
ltibia 38.2878
lfoot -17.6995 5.25699
ltoes -5.1617
225
root -35.0997 17.5737 -2.90745 -36.7296 81.5569 -39.8141
lowerback 14.7486 -0.850068 1.86998
upperback 7.317 -0.453184 2.23333
thorax -0.540992 -0.061033 1.3431
lowerneck -3.96255 3.18348 0.836936
upperneck 10.0541 4.88475 -5.5287
head 4.20124 2.23781 -1.76295
rclavicle 2.11209e-015 1.46604e-014
rhumerus -43.7208 14.5371 -84.5628
rradius 40.9244
rwrist -0.79859
rhand -1.13128 -18.1364
rfingers 7.12502
rthumb 24.5064 -46.5884
lclavicle 2.11209e-015 1.46604e-014
lhumerus -46.6363 -0.326101 80.6213
lradius 52.093
lwrist 3.29291
lhand -0.641378 11.4769
lfingers 7.12502
lthumb 24.9759 39.8645
rfemur 5.15093 2.63988 30.0137
rtibia 11.4748
rfoot -21.0883 -24.2501
rtoes 7.2088
lfemur -21.6858 3.51663 -14.0201
ltibia 38.2448
lfoot -17.7044 5.30156
ltoes -5.11815
226
root -35.0917 17.5761 -2.91199 -36.5478 81.6358 -39.7324
lowerback 14.7619 -0.843004 1.83459
upperback 7.30613 -0.448662 2.21695
thorax -0.559458 -0.0597204 1.34538
lowerneck -3.93866 3.17112 0.834628
upperneck 10.0234 4.86385 -5.51027
head 4.1838 2.22896 -1.75748
rclavicle 1.90336e-014 9.0944e-015
rhumerus -43.7452 14.4695 -84.5717
rradius 40.9306
rwrist -0.793654
rhand -1.18462 -18.1216
rfingers 7.12502
rthumb 24.4552 -46.5806
lclavicle 1.90336e-014 9.0944e-015
lhumerus -46.6796 -0.279957 80.6382
lradius 52.0346
lwrist 3.2674
lhand -0.627707 11.4916
lfingers 7.12502
lthumb 24.989 39.8774
rfemur 5.11293 2.67588 29.9348
rtibia 11.3937
rfoot -21.0967 -24.2896
rtoes 7.22559
lfemur -21.7506 3.41034 -14.1043
ltibia 38.2032
lfoot -17.7188 5.33286
ltoes -5.0347
227
root -35.0828 17.5787 -2.91662 -36.3714 81.7186 -39.663
lowerback 14.7769 -0.83375 1.79619
upperback 7.29445 -0.441608 2.2005
thorax -0.579656 -0.0572253 1.34893
lowerneck -3.90966 3.15483 0.829189
upperneck 9.99003 4.83754 -5.48986
head 4.16404 2.21754 -1.75109
rclavicle 9.7653e-015 1.86361e-014
rhumerus -43.7757 14.4013 -84.5815
rradius 40.9406
rwrist -0.798349
rhand -1.22377 -18.1084
rfingers 7.12502
rthumb 24.4177 -46.5724
lclavicle 9.7653e-015 1.86361e-014
lhumerus -46.7225 -0.24369 80.6542
lradius 51.9822
lwrist 3.24667
lhand -0.615156 11.4944
lfingers 7.12502
lthumb 25.001 39.8785
rfemur 5.07497 2.71597 29.8555
rtibia 11.3038
rfoot -21.1059 -24.3326
rtoes 7.25925
lfemur -21.8191 3.2966 -14.1865
ltibia 38.1635
lfoot -17.7408 5.35356
ltoes -4.93111
228
root -35.0732 17.5816 -2.92141 -36.2034 81.8045 -39.6092
lowerback 14.7937 -0.823014 1.7577
upperback 7.28266 -0.432569 2.18303
thorax -0.601027 -0.0537102 1.35117
lowerneck -3.87306 3.13882 0.830563
upperneck 9.94469 4.811 -5.4766
head 4.139 2.20625 -1.74842
rclavicle -1.72694e-014 1.09829e-014
rhumerus -43.8102 14.3326 -84.5933
rradius 40.9536
rwrist -0.813876
rhand -1.25144 -18.1003
rfingers 7.12502
rthumb 24.3912 -46.5679
lclavicle -1.72694e-014 1.09829e-014
lhumerus -46.7659 -0.218091 80.6685
lradius 51.942
lwrist 3.23076
lhand -0.600274 11.4953
lfingers 7.12502
lthumb 25.0153 39.8774
rfemur 5.03714 2.75887 29.7762
rtibia 11.2017
rfoot -21.1092 -24.3813
rtoes 7.29717
lfemur -21.8923 3.17371 -14.2661
ltibia 38.1271
lfoot -17.7706 5.36568
ltoes -4.80652
229
root -35.0626 17.5846 -2.9263 -36.0218 81.8949 -39.5477
lowerback 14.8179 -0.811993 1.71671
upperback 7.26923 -0.423361 2.16162
thorax -0.62801 -0.050135 1.35074
lowerneck -3.84491 3.12333 0.826461
upperneck 9.90542 4.78537 -5.45712
head 4.11745 2.19521 -1.74252
rclavicle 2.19657e-014 1.12313e-014
rhumerus -43.8512 14.2676 -84.6125
rradius 40.97
rwrist -0.837654
rhand -1.26717 -18.1038
rfingers 7.12502
rthumb 24.3761 -46.5734
lclavicle 2.19657e-014 1.12313e-014
lhumerus -46.8132 -0.199632 80.6764
lradius 51.9149
lwrist 3.22083
lhand -0.584251 11.4896
lfingers 7.12502
lthumb 25.0306 39.8696
rfemur 4.99979 2.80953 29.6941
rtibia 11.0925
rfoot -21.115 -24.4401
rtoes 7.35128
lfemur -21.9683 3.04312 -14.3475
ltibia 38.0928
lfoot -17.807 5.37305
ltoes -4.66745
230
root -35.0509 17.5876 -2.93121 -35.8529 81.9861 -39.4994
lowerback 14.8502 -0.799164 1.67683
upperback 7.25749 -0.411273 2.13818
thorax -0.657587 -0.0449663 1.34719
lowerneck -3.81664 3.10543 0.826491
upperneck 9.86328 4.75658 -5.44284
head 4.09509 2.18259 -1.73927
rclavicle 9.44227e-016 1.54058e-015
rhumerus -43.897 14.2004 -84.6347
rradius 40.9876
rwrist -0.867773
rhand -1.27277 -18.1065
rfingers 7.12502
rthumb 24.3707 -46.5768
lclavicle 9.44227e-016 1.54058e-015
lhumerus -46.8604 -0.191029 80.6807
lradius 51.8996
lwrist 3.21678
lhand -0.566222 11.478
lfingers 7.12502
lthumb 25.0479 39.8556
rfemur 4.96622 2.87484 29.6164
rtibia 10.9839
rfoot -21.1285 -24.517
rtoes 7.40825
lfemur -22.0409 2.90804 -14.4261
ltibia 38.0588
lfoot -17.8483 5.37769
ltoes -4.52095
231
root -35.0382 17.5904 -2.93614 -35.6799 82.0785 -39.451
lowerback 14.884 -0.782542 1.6308
upperback 7.25137 -0.394757 2.115
thorax -0.682034 -0.0375529 1.34671
lowerneck -3.79657 3.08678 0.830503
upperneck 9.81541 4.72666 -5.43404
head 4.07263 2.16922 -1.73854
rclavicle 8.3738e-015 -1.75427e-014
rhumerus -43.9402 14.1358 -84.6563
rradius 41.0072
rwrist -0.906393
rhand -1.26727 -18.1103
rfingers 7.12502
rthumb 24.376 -46.5799
lclavicle 8.3738e-015 -1.75427e-014
lhumerus -46.8973 -0.190864 80.6852
lradius 51.8942
lwrist 3.22157
lhand -0.5468 11.4587
lfingers 7.12502
lthumb 25.0665 39.8336
rfemur 4.9294 2.95587 29.541
rtibia 10.8819
rfoot -21.1533 -24.6123
rtoes 7.46728
lfemur -22.1143 2.7709 -14.5055
ltibia 38.0238
lfoot -17.8902 5.38533
ltoes -4.39161
232
root -35.0246 17.5931 -2.94119 -35.4793 82.1706 -39.3796
lowerback 14.9231 -0.764444 1.58483
upperback 7.24585 -0.376288 2.0863
thorax -0.708708 -0.0290537 1.34016
lowerneck -3.77466 3.06946 0.836048
upperneck 9.75954 4.69788 -5.42554
head 4.04708 2.15656 -1.73812
rclavicle -1.2424e-016 5.46658e-015
rhumerus -43.9856 14.0751 -84.6857
rradius 41.025
rwrist -0.947412
rhand -1.25128 -18.1149
rfingers 7.12502
rthumb 24.3913 -46.5824
lclavicle -1.2424e-016 5.46658e-015
lhumerus -46.935 -0.196536 80.6809
lradius 51.8999
lwrist 3.23481
lhand -0.529673 11.4303
lfingers 7.12502
lthumb 25.0829 39.803
rfemur 4.88456 3.03623 29.462
rtibia 10.7909
rfoot -21.1824 -24.7116
rtoes 7.51046
lfemur -22.1909 2.63718 -14.5902
ltibia 37.9866
lfoot -17.9288 5.40215
ltoes -4.29831
233
root -35.0101 17.5955 -2.94637 -35.2565 82.2618 -39.291
lowerback 14.9609 -0.743233 1.53677
upperback 7.24573 -0.354027 2.05438
thorax -0.729073 -0.0185155 1.3308
lowerneck -3.75089 3.05258 0.849449
upperneck 9.68906 4.66867 -5.42277
head 4.01644 2.14392 -1.74102
rclavicle -1.48343e-014 -1.5704e-014
rhumerus -44.0275 14.0176 -84.7182
rradius 41.0422
rwrist -0.987713
rhand -1.22595 -18.1193
rfingers 7.12502
rthumb 24.4156 -46.5836
lclavicle -1.48343e-014 -1.5704e-014
lhumerus -46.9633 -0.207282 80.6716
lradius 51.9148
lwrist 3.25331
lhand -0.511748 11.3994
lfingers 7.12502
lthumb 25.1001 39.7697
rfemur 4.82772 3.1201 29.3815
rtibia 10.7192
rfoot -21.2216 -24.817
rtoes 7.54163
lfemur -22.27 2.50772 -14.6793
ltibia 37.9463
lfoot -17.9636 5.42722
ltoes -4.24263
